# xmcd CD database file
#
# Track frame offsets:
#	150
#	14995
#	28919
#	42656
#	56578
#	71560
#	87385
#	100912
#	113921
#	129126
#	142488
#	155645
#	168494
#	180961
#	193588
#	207710
#	221340
#	234409
#	246296
#	259183
#	283331
#
# Disc length: 4348 seconds
#
# Revision: 0
# Processed by: cddbd v1.4PL0 Copyright (c) Steve Scherf et al.
# Submitted via: CDex 1.50
#
DISCID=4c10fa15
DTITLE=Buddy Moss - 1930-1941
DYEAR=1990
DGENRE=Blues
TTITLE0=I'm On My Way Down Home
TTITLE1=Diddle-Da-Diddle
TTITLE2=She Looks So Good
TTITLE3=She's Coming Back Some Cold Rainy Day
TTITLE4=Bye Bye Mama
TTITLE5=Cold Country Blues
TTITLE6=Jealous Hearted Man
TTITLE7=Joker Man
TTITLE8=Stop Hanging Around
TTITLE9=Red River Blues
TTITLE10=Tampa Strut
TTITLE11=Who Stole De Lock ?
TTITLE12=Dough Rolling Papa
TTITLE13=Some Lonesome Day
TTITLE14=Worrysome Woman
TTITLE15=Mistreated Boy
TTITLE16=You Need A Woman
TTITLE17=Joy Rag
TTITLE18=I'm Sittin' Here Tonight
TTITLE19=Unfinished Business
TTITLE20=Unknown
EXTD=YEAR: 1990
EXTT0=
EXTT1=
EXTT2=
EXTT3=
EXTT4=
EXTT5=
EXTT6=
EXTT7=
EXTT8=
EXTT9=
EXTT10=
EXTT11=
EXTT12=
EXTT13=
EXTT14=
EXTT15=
EXTT16=
EXTT17=
EXTT18=
EXTT19=
EXTT20=
PLAYORDER=
